<?xml version="1.0" standalone="no"?>
<!DOCTYPE svg PUBLIC "-//W3C//DTD SVG 20010904//EN"
 "http://www.w3.org/TR/2001/REC-SVG-20010904/DTD/svg10.dtd">
<svg version="1.0" xmlns="http://www.w3.org/2000/svg"
 width="700.000000pt" height="700.000000pt" viewBox="0 0 700.000000 700.000000"
 preserveAspectRatio="xMidYMid meet">
<metadata>
Created by potrace 1.11, written by Peter Selinger 2001-2013
</metadata>
<g transform="translate(0.000000,700.000000) scale(0.100000,-0.100000)"
fill="#000000" stroke="none">
<path d="M0 3500 l0 -3500 3500 0 3500 0 0 3500 0 3500 -3500 0 -3500 0 0
-3500z m1901 2990 c143 -15 218 -34 316 -80 185 -86 288 -246 339 -525 16 -85
19 -154 19 -465 0 -245 -4 -393 -13 -452 -55 -371 -195 -558 -482 -641 -126
-37 -258 -47 -590 -47 l-300 0 0 1110 0 1110 304 0 c167 0 350 -5 407 -10z
m1927 -182 l2 -178 -345 0 -345 0 0 -260 0 -260 310 0 310 0 0 -175 0 -175
-310 0 -310 0 0 -310 0 -310 345 0 345 0 0 -180 0 -180 -550 0 -550 0 0 1105
0 1105 548 -2 547 -3 3 -177z m1850 -1845 l2 -183 -735 0 -735 0 0 178 c0 98
3 182 7 185 3 4 333 6 732 5 l726 -3 3 -182z m-4143 -504 c9 -14 165 -993 205
-1289 17 -123 33 -227 36 -229 11 -12 22 25 28 98 11 128 53 373 154 911 l98
515 184 3 c101 1 187 -1 191 -5 4 -5 55 -260 113 -568 94 -504 131 -721 151
-898 11 -101 28 -63 52 119 33 252 195 1306 204 1332 8 22 11 22 184 22 145 0
175 -2 175 -14 0 -14 -319 -1796 -341 -1903 l-10 -53 -229 0 -229 0 -10 53
c-22 107 -181 966 -200 1082 -18 105 -39 284 -42 349 0 11 -16 -86 -34 -218
-18 -131 -75 -470 -126 -752 l-94 -514 -230 0 -231 0 -173 958 c-95 526 -175
969 -178 985 l-5 27 175 0 c115 0 178 -4 182 -11z m2905 -149 l0 -160 -305 0
-305 0 0 -235 0 -235 275 0 275 0 0 -160 0 -160 -275 0 -275 0 0 -270 0 -270
305 0 305 0 0 -160 0 -160 -490 0 -490 0 0 978 c0 538 3 982 7 985 3 4 224 7
490 7 l483 0 0 -160z m750 150 c245 -18 376 -82 449 -219 86 -162 81 -455 -10
-583 -30 -41 -80 -76 -140 -98 -30 -10 -53 -22 -52 -26 1 -4 28 -15 59 -26
119 -40 187 -114 221 -238 24 -90 25 -329 0 -418 -50 -186 -149 -288 -322
-332 -71 -18 -111 -20 -432 -20 l-353 0 0 978 c0 538 3 982 7 985 10 10 429 8
573 -3z m488 -2417 l-3 -178 -2077 -3 -2078 -2 0 180 0 180 2080 0 2080 0 -2
-177z m-2279 -429 c30 -6 31 -8 31 -59 l0 -53 -39 5 c-80 11 -121 -15 -121
-76 0 -47 21 -75 100 -136 72 -55 101 -111 101 -190 0 -103 -35 -158 -117
-185 -42 -14 -135 -8 -176 11 -26 11 -28 16 -28 74 l0 62 47 -23 c58 -30 100
-31 130 -2 50 47 24 107 -78 184 -76 58 -104 112 -104 199 1 105 30 148 123
181 41 15 84 17 131 8z m2140 -25 c85 -47 127 -176 118 -358 -6 -126 -26 -198
-70 -248 -43 -49 -98 -73 -172 -73 -74 0 -129 24 -172 73 -43 49 -64 122 -70
244 -11 216 50 352 173 382 56 14 150 5 193 -20z m-1659 -34 l0 -55 -65 0 -65
0 0 -290 0 -290 -65 0 -65 0 0 290 0 290 -65 0 -65 0 0 55 0 55 195 0 195 0 0
-55z m190 -216 c4 -240 7 -269 23 -287 42 -46 109 -34 132 23 12 27 15 89 15
285 l0 251 63 -3 62 -3 0 -250 c0 -285 -7 -325 -64 -385 -43 -46 -104 -65
-180 -57 -71 8 -121 42 -152 104 -23 47 -24 56 -27 321 l-3 273 63 -3 63 -3 5
-266z m682 251 c58 -17 103 -66 123 -134 14 -47 16 -88 13 -215 -4 -139 -7
-161 -28 -204 -42 -88 -113 -116 -292 -117 l-108 0 0 347 0 346 128 -6 c70 -3
144 -11 164 -17z m346 -327 l2 -343 -60 0 -60 0 0 345 0 346 58 -3 57 -3 3
-342z"/>
<path d="M1600 5391 l0 -751 93 0 c406 1 511 199 494 930 -8 323 -28 405 -121
487 -69 61 -125 75 -308 81 l-158 4 0 -751z"/>
<path d="M4960 3439 l0 -232 129 5 c113 4 136 8 178 29 64 33 94 87 101 179 6
82 -9 130 -55 181 -47 52 -107 69 -245 69 l-108 0 0 -231z"/>
<path d="M4960 2580 l0 -272 158 4 c167 3 195 11 243 61 28 30 39 60 50 137
18 140 -23 257 -109 307 -45 27 -54 28 -194 31 l-148 4 0 -272z"/>
<path d="M5380 996 c-58 -19 -74 -60 -78 -206 -3 -78 0 -142 8 -169 31 -116
145 -137 197 -38 25 47 31 255 9 329 -9 31 -22 61 -30 67 -26 22 -70 29 -106
17z"/>
<path d="M4590 766 l0 -236 35 0 c54 0 101 24 122 62 14 26 18 62 21 173 2 82
-1 151 -7 167 -14 38 -51 58 -115 65 l-56 6 0 -237z"/>
</g>
</svg>
